<svg width="334" height="118" viewBox="0 0 334 118" fill="none" xmlns="http://www.w3.org/2000/svg">
<g clip-path="url(#clip0_30_175)">
<rect width="334" height="118" rx="30" fill="#42C83C"/>
<path fill-rule="evenodd" clip-rule="evenodd" d="M334.516 -61.6635C327.755 -54.9191 319.36 -45.6737 316.702 -35.1802C315.871 -31.901 315.6 -28.4986 316.113 -25.0129C315.553 -22.5455 315.316 -20.0106 315.496 -17.4251C315.429 -17.1865 315.365 -16.9472 315.304 -16.7073C314.832 -14.8432 314.541 -12.9393 314.472 -11.0028C314.153 -10.0971 313.873 -9.18081 313.639 -8.25481C313.569 -7.97766 313.502 -7.69964 313.44 -7.42076C307.277 -0.994805 300.58 7.21779 298.258 16.3824C296.927 21.6383 297.033 27.211 299.503 32.9354C301.972 38.6571 306.794 44.5081 314.854 50.338C333.631 63.9195 351.102 64.6009 364.506 65.1236C365.751 65.1721 366.96 65.2193 368.133 65.2753C375.053 65.606 380.594 66.2445 384.45 69.1875C388.286 72.115 390.528 77.3906 390.641 87.1987L391.23 87.2126C391.117 77.3553 388.866 71.8574 384.812 68.763C380.778 65.684 375.033 65.052 368.142 64.7227C366.967 64.6666 365.757 64.6193 364.513 64.5706C351.115 64.0468 333.821 63.3705 315.202 49.904C307.206 44.1198 302.466 38.3467 300.048 32.7435C297.631 27.1429 297.524 21.69 298.831 16.5287C301.038 7.81849 307.27 -0.0502673 313.223 -6.34749L313.217 -6.31736C313.066 -5.98484 312.919 -5.65068 312.777 -5.31491C308.671 -0.207536 305.04 5.61082 303.454 11.8738C302.122 17.1297 302.228 22.7024 304.699 28.4267C307.168 34.1484 311.989 39.9994 320.049 45.8293C338.827 59.4109 356.298 60.0922 369.701 60.615C370.946 60.6635 372.156 60.7107 373.328 60.7667C380.248 61.0973 385.79 61.7358 389.646 64.6788C393.481 67.6064 395.724 72.8819 395.837 82.6901L396.426 82.704C396.312 72.8467 394.061 67.3488 390.007 64.2544C385.973 61.1754 380.229 60.5433 373.337 60.2141C372.163 60.158 370.953 60.1106 369.709 60.062C356.311 59.5381 339.016 58.8619 320.398 45.3954C312.401 39.6112 307.661 33.8381 305.243 28.2349C302.826 22.6343 302.719 17.1814 304.027 12.0201C305.326 6.8944 308.018 2.06012 311.227 -2.33401C309.732 0.396816 308.527 3.25478 307.778 6.21189C306.447 11.4678 306.553 17.0405 309.023 22.7648C311.492 28.4865 316.314 34.3375 324.374 40.1674C343.151 53.749 360.622 54.4303 374.026 54.9531L374.027 54.9531L374.027 54.9531L374.032 54.9533L374.035 54.9534C375.277 55.0019 376.483 55.0489 377.653 55.1048C384.573 55.4354 390.114 56.0739 393.97 59.0169C397.806 61.9445 400.048 67.22 400.161 77.0282L400.75 77.0421C400.637 67.1848 398.386 61.6869 394.332 58.5925C390.298 55.5135 384.553 54.8814 377.662 54.5522C376.487 54.4961 375.277 54.4487 374.033 54.4001C360.635 53.8762 343.341 53.2 324.723 39.7335C316.726 33.9493 311.986 28.1762 309.568 22.573C307.151 16.9724 307.044 11.5195 308.351 6.3582C309.027 3.69017 310.081 1.1011 311.389 -1.38804C311.31 -1.10971 311.234 -0.830471 311.163 -0.550343C309.832 4.70553 309.938 10.2783 312.408 16.0026C314.878 21.7243 319.699 27.5753 327.759 33.4052C346.536 46.9868 364.007 47.6681 377.411 48.1908L377.413 48.1909C378.657 48.2394 379.866 48.2866 381.038 48.3426C387.958 48.6732 393.5 49.3117 397.356 52.2547C401.191 55.1823 403.434 60.4578 403.547 70.2659L404.136 70.2799C404.022 60.4225 401.771 54.9247 397.717 51.8302C393.683 48.7513 387.939 48.1192 381.047 47.7899C379.872 47.7338 378.662 47.6865 377.419 47.6379C364.021 47.114 346.726 46.4378 328.108 32.9713C320.111 27.1871 315.371 21.414 312.953 15.8107C310.536 10.2102 310.429 4.75723 311.737 -0.404034C312.049 -1.63723 312.442 -2.85355 312.904 -4.05095C312.526 -0.0611734 313.062 4.07727 314.884 8.29815C317.353 14.0198 322.174 19.8708 330.234 25.7007C349.012 39.2823 366.483 39.9636 379.887 40.4864C381.131 40.5349 382.341 40.5821 383.513 40.6381C390.434 40.9687 395.975 41.6072 399.831 44.5503C403.666 47.4778 405.909 52.7533 406.022 62.5615L406.611 62.5754C406.497 52.7181 404.246 47.2202 400.192 44.1258C396.158 41.0468 390.414 40.4147 383.522 40.0855C382.348 40.0294 381.138 39.982 379.894 39.9334C366.496 39.4096 349.201 38.7333 330.583 25.2668C322.586 19.4826 317.847 13.7095 315.428 8.10627C313.458 3.54022 313.023 -0.927705 313.638 -5.21945C313.889 -5.60671 314.144 -5.99103 314.405 -6.37233C314.5 -6.48578 314.596 -6.59888 314.691 -6.71159C314.993 -4.55483 315.595 -2.36592 316.549 -0.154374C319.019 5.56731 323.84 11.4183 331.9 17.2482C350.677 30.8298 368.148 31.5111 381.552 32.0339C382.797 32.0824 384.007 32.1296 385.179 32.1856C392.099 32.5162 397.641 33.1547 401.497 36.0977C405.332 39.0253 407.575 44.3008 407.688 54.109L408.277 54.1229C408.163 44.2656 405.912 38.7677 401.858 35.6733C397.824 32.5943 392.08 31.9622 385.188 31.633C384.013 31.5768 382.803 31.5295 381.56 31.4809C368.162 30.957 350.867 30.2808 332.249 16.8143C324.252 11.0301 319.512 5.25697 317.094 -0.346245C316.079 -2.69739 315.472 -5.02251 315.205 -7.31096C315.906 -8.12082 316.613 -8.91048 317.32 -9.67874C317.388 -9.51162 317.458 -9.34437 317.531 -9.17699C320 -3.45531 324.821 2.39571 332.881 8.22558C351.658 21.8072 369.13 22.4885 382.533 23.0112L382.536 23.0113L382.539 23.0114L382.544 23.0116L382.549 23.0118C383.789 23.0602 384.993 23.1072 386.16 23.163C393.08 23.4936 398.622 24.1321 402.478 27.0751C406.313 30.0027 408.556 35.2782 408.669 45.0864L409.258 45.1003C409.144 35.2429 406.893 29.7451 402.839 26.6506C398.805 23.5717 393.061 22.9396 386.169 22.6103C384.995 22.5542 383.784 22.5069 382.541 22.4583C369.143 21.9344 351.848 21.2582 333.23 7.79167C325.233 2.00747 320.493 -3.76565 318.075 -9.36887C317.963 -9.62873 317.856 -9.88828 317.754 -10.1475C318.804 -11.2761 319.85 -12.3569 320.87 -13.3859C323.641 -9.35581 327.684 -5.2851 333.298 -1.22464C352.075 12.357 369.546 13.0383 382.95 13.561C384.194 13.6096 385.404 13.6567 386.576 13.7127C393.497 14.0434 399.038 14.6819 402.894 17.6249C406.729 20.5524 408.972 25.828 409.085 35.6361L409.674 35.65C409.56 25.7927 407.309 20.2948 403.255 17.2004C399.221 14.1214 393.477 13.4894 386.585 13.1601C385.411 13.104 384.201 13.0567 382.957 13.0081C369.559 12.4842 352.264 11.8079 333.646 -1.65856C328.019 -5.72842 324.005 -9.79279 321.278 -13.7964L321.462 -13.9815L321.704 -14.2225L321.268 -14.6095C321.162 -14.5035 321.055 -14.3968 320.948 -14.2895C320.912 -14.3451 320.875 -14.4008 320.839 -14.4564C322.59 -16.4006 324.356 -18.2161 326.028 -19.8844L325.593 -20.2714C323.961 -18.6435 322.233 -16.8698 320.515 -14.9681C320.295 -15.3212 320.086 -15.6738 319.886 -16.0258C322.924 -19.9898 326.328 -23.5687 329.413 -26.6467L328.978 -27.0336C325.951 -24.0143 322.597 -20.4938 319.577 -16.5844C319.251 -17.1866 318.954 -17.7872 318.683 -18.3859C322.399 -24.5081 327.47 -29.9434 331.889 -34.3511L331.453 -34.7381C327.126 -30.4215 322.129 -25.0804 318.396 -19.0433C318.063 -19.8344 317.776 -20.6225 317.532 -21.4072C321.101 -29.7571 327.868 -37.1312 333.554 -42.8037L333.119 -43.1906C327.585 -37.6707 320.957 -30.4754 317.276 -22.2917C317.033 -23.1904 316.846 -24.0844 316.711 -24.9732C316.758 -25.1771 316.807 -25.3806 316.859 -25.5836C319.479 -35.9244 327.772 -45.0791 334.536 -51.8263L334.1 -52.2133C327.528 -45.657 319.411 -36.7372 316.521 -26.6049C316.287 -29.4822 316.582 -32.299 317.275 -35.0339C319.895 -45.3746 328.188 -54.5293 334.952 -61.2765L334.516 -61.6635ZM314.565 -7.74686C314.494 -7.60931 314.425 -7.47146 314.356 -7.33332C314.43 -7.43873 314.504 -7.5439 314.579 -7.64881L314.569 -7.75086L314.565 -7.74686ZM316.271 -9.92485C316.483 -10.1987 316.697 -10.4707 316.912 -10.7407C316.829 -10.9724 316.75 -11.2039 316.674 -11.435C316.291 -10.8284 315.922 -10.2149 315.567 -9.5946C315.736 -9.76488 315.905 -9.93365 316.073 -10.1009L316.271 -9.92485ZM320.538 -13.8775C319.927 -13.2614 319.304 -12.6257 318.676 -11.9715C319.261 -12.6676 319.852 -13.3497 320.446 -14.0171L320.506 -13.9258L320.538 -13.8775ZM320.118 -14.5269C319.907 -14.8621 319.705 -15.197 319.511 -15.5316C318.664 -14.4072 317.85 -13.2528 317.081 -12.0708C317.162 -11.8048 317.248 -11.5384 317.34 -11.2716C318.25 -12.3925 319.182 -13.4786 320.118 -14.5269ZM314.411 -8.72306L314.337 -8.58501C314.382 -8.75153 314.429 -8.91774 314.477 -9.08364C314.48 -9.0107 314.483 -8.93772 314.487 -8.8647L314.411 -8.72306ZM316.445 -12.1698C315.959 -11.4141 315.491 -10.6469 315.045 -9.86909C315.042 -10.2091 315.046 -10.5482 315.057 -10.8863C315.368 -11.7613 315.716 -12.6266 316.097 -13.4815C316.2 -13.0454 316.316 -12.6081 316.445 -12.1698ZM319.196 -16.0872C318.389 -15.0235 317.608 -13.9319 316.867 -12.8145C316.726 -13.331 316.605 -13.846 316.501 -14.3594C317.054 -15.5232 317.666 -16.6667 318.326 -17.7878C318.592 -17.2221 318.882 -16.6552 319.196 -16.0872ZM318.028 -18.4399C318.001 -18.5023 317.974 -18.5648 317.947 -18.6272C317.665 -19.2809 317.413 -19.9326 317.192 -20.5821C316.768 -19.5202 316.398 -18.4431 316.09 -17.3523C316.139 -16.6851 316.216 -16.0146 316.323 -15.341C316.849 -16.392 317.42 -17.4255 318.028 -18.4399ZM315.889 -14.4449C315.806 -14.8681 315.735 -15.2901 315.676 -15.7109C315.471 -14.7852 315.312 -13.8505 315.205 -12.9075C315.421 -13.4238 315.649 -13.9363 315.889 -14.4449ZM316.911 -21.4545C316.588 -20.689 316.292 -19.9151 316.026 -19.1334C316.027 -20.583 316.158 -22.0157 316.4 -23.4287C316.541 -22.7732 316.711 -22.1151 316.911 -21.4545ZM292.347 19.8258C295.006 9.33223 303.401 0.0868259 310.162 -6.65754L310.597 -6.27056C303.833 0.476598 295.54 9.63133 292.92 19.9721C291.613 25.1333 291.72 30.5863 294.137 36.1868C296.555 41.7901 301.295 47.5632 309.292 53.3474C327.91 66.8139 345.204 67.4901 358.602 68.014C359.846 68.0626 361.056 68.1099 362.231 68.166C369.122 68.4953 374.867 69.1274 378.901 72.2064C382.955 75.3008 385.206 80.7986 385.319 90.656L384.731 90.642C384.617 80.8339 382.375 75.5584 378.539 72.6308C374.684 69.6878 369.142 69.0493 362.222 68.7187C361.049 68.6627 359.84 68.6155 358.595 68.5669C345.191 68.0442 327.72 67.3629 308.943 53.7813C300.883 47.9514 296.061 42.1004 293.592 36.3787C291.122 30.6544 291.016 25.0816 292.347 19.8258ZM303.726 -4.08031C296.965 2.66406 288.57 11.9095 285.912 22.403C284.58 27.6589 284.686 33.2316 287.156 38.9559C289.626 44.6776 294.447 50.5287 302.507 56.3585C321.284 69.9401 338.755 70.6214 352.159 71.1442L352.159 71.1442C353.404 71.1927 354.614 71.2399 355.786 71.2959C362.706 71.6265 368.248 72.265 372.104 75.208C375.939 78.1356 378.182 83.4111 378.295 93.2193L378.884 93.2332C378.77 83.3759 376.519 77.878 372.465 74.7836C368.431 71.7046 362.687 71.0725 355.795 70.7433C354.621 70.6872 353.41 70.6398 352.167 70.5912C338.769 70.0674 321.474 69.3911 302.856 55.9246C294.859 50.1404 290.119 44.3673 287.701 38.7641C285.284 33.1635 285.177 27.7106 286.485 22.5493C289.105 12.2086 297.398 3.05383 304.162 -3.69333L303.726 -4.08031ZM279.127 24.3579C281.786 13.8644 290.181 4.61897 296.942 -2.1254L297.377 -1.73842C290.613 5.00874 282.32 14.1635 279.7 24.5042C278.393 29.6655 278.5 35.1184 280.917 40.719C283.335 46.3222 288.075 52.0953 296.071 57.8795C314.689 71.346 331.984 72.0223 345.382 72.5461C346.626 72.5948 347.836 72.6421 349.01 72.6982C355.902 73.0274 361.647 73.6595 365.681 76.7385C369.735 79.8329 371.986 85.3308 372.099 95.1881L371.51 95.1742C371.397 85.3661 369.155 80.0905 365.319 77.163C361.463 74.2199 355.922 73.5814 349.002 73.2508C347.829 73.1948 346.62 73.1476 345.375 73.0991C331.971 72.5764 314.5 71.895 295.723 58.3134C287.663 52.4836 282.841 46.6325 280.372 40.9109C277.902 35.1865 277.795 29.6138 279.127 24.3579ZM289.952 -0.557702C283.191 6.18667 274.796 15.4321 272.138 25.9256C270.806 31.1815 270.912 36.7542 273.383 42.4786C275.852 48.2002 280.673 54.0513 288.734 59.8811C307.511 73.4627 324.982 74.1441 338.386 74.6668C339.63 74.7153 340.84 74.7625 342.012 74.8185C348.933 75.1491 354.474 75.7876 358.33 78.7307C362.165 81.6582 364.408 86.9337 364.521 96.7419L365.11 96.7558C364.996 86.8985 362.745 81.4006 358.691 78.3062C354.657 75.2272 348.913 74.5951 342.021 74.2659C340.847 74.2098 339.637 74.1625 338.393 74.1138C324.995 73.59 307.7 72.9137 289.082 59.4472C281.085 53.663 276.346 47.8899 273.927 42.2867C271.511 36.6861 271.403 31.2332 272.711 26.0719C275.331 15.7312 283.624 6.57644 290.388 -0.17072L289.952 -0.557702ZM265.051 27.3041C267.71 16.8106 276.105 7.56518 282.866 0.820812L283.301 1.20779C276.538 7.95495 268.244 17.1097 265.625 27.4504C264.317 32.6117 264.424 38.0646 266.841 43.6652C269.259 49.2684 273.999 55.0415 281.996 60.8257C300.614 74.2922 317.909 74.9685 331.307 75.4923C332.55 75.541 333.76 75.5883 334.935 75.6444C341.827 75.9737 347.571 76.6057 351.605 79.6847C355.659 82.7791 357.91 88.277 358.024 98.1343L357.435 98.1204C357.322 88.3123 355.079 83.0367 351.243 80.1092C347.388 77.1662 341.846 76.5276 334.926 76.197C333.754 76.141 332.544 76.0938 331.299 76.0453C317.895 75.5226 300.424 74.8412 281.647 61.2597C273.587 55.4298 268.765 49.5788 266.296 43.8571C263.826 38.1327 263.72 32.56 265.051 27.3041ZM275.764 2.16757C269.003 8.91193 260.608 18.1573 257.95 28.6509C256.618 33.9067 256.724 39.4795 259.195 45.2038C261.664 50.9255 266.485 56.7765 274.545 62.6064C293.323 76.188 310.794 76.8693 324.198 77.3921C325.442 77.4406 326.652 77.4878 327.824 77.5438C334.744 77.8744 340.286 78.5129 344.142 81.4559C347.977 84.3835 350.22 89.659 350.333 99.4672L350.922 99.4811C350.808 89.6238 348.557 84.1259 344.503 81.0315C340.469 77.9525 334.725 77.3204 327.833 76.9911C326.659 76.935 325.449 76.8877 324.205 76.8391C310.807 76.3152 293.512 75.639 274.894 62.1725C266.897 56.3883 262.158 50.6152 259.739 45.0119C257.323 39.4114 257.215 33.9584 258.523 28.7972C261.143 18.4564 269.436 9.3017 276.2 2.55455L275.764 2.16757ZM250.891 30.084C253.549 19.5904 261.944 10.345 268.705 3.60068L269.141 3.98766C262.377 10.7348 254.084 19.8896 251.464 30.2303C250.156 35.3916 250.264 40.8445 252.68 46.4451C255.099 52.0483 259.838 57.8214 267.835 63.6056C286.453 77.0721 303.748 77.7483 317.146 78.2722C318.39 78.3208 319.6 78.3682 320.774 78.4243C327.666 78.7535 333.41 79.3856 337.444 82.4646C341.498 85.559 343.749 91.0569 343.863 100.914L343.274 100.9C343.161 91.0921 340.918 85.8166 337.083 82.889C333.227 79.946 327.686 79.3075 320.765 78.9769C319.593 78.9209 318.383 78.8737 317.139 78.8252C303.735 78.3024 286.264 77.6211 267.487 64.0395C259.426 58.2096 254.605 52.3586 252.136 46.6369C249.665 40.9126 249.559 35.3399 250.891 30.084ZM261.736 5.20689C254.975 11.9513 246.58 21.1967 243.921 31.6902C242.59 36.9461 242.696 42.5188 245.166 48.2431C247.636 53.9648 252.457 59.8158 260.517 65.6457C279.294 79.2273 296.765 79.9086 310.169 80.4314L310.169 80.4314C311.414 80.4799 312.624 80.5271 313.796 80.5831C320.716 80.9137 326.258 81.5522 330.114 84.4953C333.949 87.4228 336.192 92.6983 336.305 102.506L336.894 102.52C336.78 92.6631 334.529 87.1652 330.475 84.0708C326.441 80.9918 320.697 80.3597 313.805 80.0305C312.63 79.9744 311.42 79.927 310.177 79.8784C296.779 79.3546 279.484 78.6783 260.866 65.2118C252.869 59.4276 248.129 53.6545 245.711 48.0513C243.294 42.4507 243.187 36.9978 244.495 31.8365C247.115 21.4958 255.408 12.341 262.171 5.59387L261.736 5.20689ZM237.075 33.5295C239.734 23.036 248.129 13.7906 254.89 7.04624L255.325 7.43322C248.562 14.1804 240.268 23.3351 237.649 33.6759C236.341 38.8371 236.448 44.2901 238.865 49.8906C241.283 55.4938 246.023 61.267 254.02 67.0512C272.638 80.5177 289.933 81.1939 303.33 81.7178C304.574 81.7664 305.784 81.8137 306.959 81.8698C313.85 82.1991 319.595 82.8312 323.629 85.9101C327.683 89.0046 329.934 94.5024 330.048 104.36L329.459 104.346C329.346 94.5377 327.103 89.2622 323.267 86.3346C319.412 83.3916 313.87 82.7531 306.95 82.4225C305.778 82.3664 304.568 82.3193 303.323 82.2707L303.323 82.2707C289.919 81.748 272.448 81.0667 253.671 67.4851C245.611 61.6552 240.789 55.8042 238.32 50.0825C235.85 44.3582 235.744 38.7854 237.075 33.5295ZM248.191 9.15866C241.43 15.903 233.035 25.1484 230.377 35.642C229.045 40.8978 229.151 46.4706 231.622 52.1949C234.091 57.9166 238.912 63.7676 246.972 69.5975C265.749 83.1791 283.221 83.8604 296.624 84.3832L296.624 84.3831L296.624 84.3831C297.869 84.4317 299.079 84.4789 300.251 84.5349C307.171 84.8655 312.713 85.504 316.569 88.447C320.404 91.3746 322.647 96.6501 322.76 106.458L323.349 106.472C323.235 96.6148 320.984 91.117 316.93 88.0226C312.896 84.9436 307.152 84.3115 300.26 83.9822C299.086 83.9261 297.875 83.8788 296.632 83.8302C283.234 83.3063 265.939 82.6301 247.321 69.1636C239.324 63.3794 234.584 57.6063 232.166 52.003C229.749 46.4025 229.642 40.9495 230.95 35.7883C233.57 25.4475 241.863 16.2928 248.627 9.54564L248.191 9.15866Z" fill="url(#paint0_radial_30_175)" fill-opacity="0.58"/>
<path d="M20.5 23H20.1V17.6C20.1 17.28 20.03 17.0333 19.89 16.86C19.7567 16.6867 19.5267 16.6 19.2 16.6H19.1V16.4H19.75C20.0567 16.4 20.3167 16.45 20.53 16.55C20.7433 16.65 20.9333 16.8 21.1 17L24.6 21.35V16.4H25V23.1H24.8L20.5 17.75V23ZM28.3273 23.1C27.874 23.1 27.4907 22.9933 27.1773 22.78C26.864 22.56 26.6273 22.2667 26.4673 21.9C26.3073 21.5267 26.2273 21.11 26.2273 20.65C26.2273 20.1967 26.3073 19.7833 26.4673 19.41C26.6273 19.0367 26.8573 18.7433 27.1573 18.53C27.464 18.31 27.8207 18.2 28.2273 18.2C28.9007 18.2 29.4007 18.39 29.7273 18.77C30.0607 19.1433 30.2273 19.6867 30.2273 20.4L30.2073 20.8H27.1773C27.1773 21.36 27.2973 21.8167 27.5373 22.17C27.7773 22.5233 28.1073 22.7 28.5273 22.7C28.8407 22.7 29.104 22.6333 29.3173 22.5C29.5373 22.3667 29.7407 22.1667 29.9273 21.9L30.1273 22.05C29.9073 22.4167 29.6507 22.6833 29.3573 22.85C29.064 23.0167 28.7207 23.1 28.3273 23.1ZM29.2773 20.4C29.2773 19.8133 29.1907 19.3667 29.0173 19.06C28.844 18.7533 28.5807 18.6 28.2273 18.6C28.0273 18.6 27.8473 18.68 27.6873 18.84C27.5273 18.9933 27.4007 19.2067 27.3073 19.48C27.2207 19.7533 27.1773 20.06 27.1773 20.4H29.2773ZM31.6113 19.45C31.458 19.0767 31.3047 18.8167 31.1513 18.67C31.0047 18.5167 30.808 18.4333 30.5613 18.42V18.22C30.5947 18.22 30.6447 18.2167 30.7113 18.21C30.778 18.2033 30.8447 18.2 30.9113 18.2C31.2713 18.2 31.588 18.2933 31.8613 18.48C32.1413 18.66 32.3747 18.9833 32.5613 19.45L33.4113 21.55L34.2613 19.4C34.1013 19.0467 33.948 18.8 33.8013 18.66C33.6613 18.5133 33.4813 18.4333 33.2613 18.42V18.22C33.2947 18.22 33.3447 18.2167 33.4113 18.21C33.478 18.2033 33.5447 18.2 33.6113 18.2C33.9713 18.2 34.288 18.2933 34.5613 18.48C34.8413 18.66 35.0747 18.9833 35.2613 19.45L36.1113 21.55L37.4113 18.3H37.9113L35.9613 23.1H35.7613L34.5113 20L33.2613 23.1H33.0613L31.6113 19.45ZM46.8216 23.05C46.5016 23.05 46.1849 22.9633 45.8716 22.79C45.5582 22.61 45.3082 22.2633 45.1216 21.75L44.8716 21.1H42.0716L41.2716 23H40.8216L43.6216 16.4H43.9216L46.1216 21.75C46.2882 22.1367 46.4449 22.4033 46.5916 22.55C46.7382 22.69 46.9482 22.7733 47.2216 22.8V23C47.1016 23.0333 46.9682 23.05 46.8216 23.05ZM44.6716 20.7L43.4716 17.8L42.2216 20.7H44.6716ZM47.7092 17.6C47.7092 17.26 47.6626 17.01 47.5692 16.85C47.4759 16.6833 47.2892 16.6 47.0092 16.6H46.8092V16.4H47.7092C47.9559 16.4 48.1392 16.4333 48.2592 16.5C48.3859 16.56 48.4759 16.6733 48.5292 16.84C48.5826 17.0067 48.6092 17.26 48.6092 17.6V23H47.7092V17.6ZM52.3411 23.1C52.0011 23.1 51.7211 23.0467 51.5011 22.94C51.2811 22.8333 51.1111 22.7033 50.9911 22.55H50.9411L50.5911 23H50.0911V17.6C50.0911 17.26 50.0444 17.01 49.9511 16.85C49.8578 16.6833 49.6711 16.6 49.3911 16.6H49.1911V16.4H50.0911C50.3378 16.4 50.5211 16.4333 50.6411 16.5C50.7678 16.56 50.8578 16.6733 50.9111 16.84C50.9644 17.0067 50.9911 17.26 50.9911 17.6V18.5C51.1844 18.4067 51.3778 18.3333 51.5711 18.28C51.7644 18.2267 51.9878 18.2 52.2411 18.2C52.8611 18.2 53.3311 18.43 53.6511 18.89C53.9778 19.35 54.1411 19.9367 54.1411 20.65C54.1411 21.3567 53.9844 21.9433 53.6711 22.41C53.3578 22.87 52.9144 23.1 52.3411 23.1ZM52.0411 22.7C52.4211 22.7 52.7078 22.5133 52.9011 22.14C53.0944 21.76 53.1911 21.2633 53.1911 20.65C53.1911 20.03 53.0878 19.5333 52.8811 19.16C52.6811 18.7867 52.3678 18.6 51.9411 18.6C51.8011 18.6 51.6578 18.6267 51.5111 18.68C51.3644 18.7333 51.1911 18.8067 50.9911 18.9V22.1C51.1111 22.28 51.2511 22.4267 51.4111 22.54C51.5778 22.6467 51.7878 22.7 52.0411 22.7ZM57.0355 23.1C56.5355 23.1 56.1255 22.9667 55.8055 22.7C55.4921 22.4333 55.3355 21.9667 55.3355 21.3V19.5C55.3355 19.16 55.2888 18.91 55.1955 18.75C55.1021 18.5833 54.9155 18.5 54.6355 18.5H54.5355V18.3H55.3355C55.5821 18.3 55.7655 18.3333 55.8855 18.4C56.0121 18.46 56.1021 18.5733 56.1555 18.74C56.2088 18.9067 56.2355 19.16 56.2355 19.5V21.3C56.2355 21.7667 56.3388 22.11 56.5455 22.33C56.7588 22.5433 57.0221 22.65 57.3355 22.65C57.6888 22.65 58.0221 22.4733 58.3355 22.12V18.3H59.2355V23H58.7355L58.3855 22.6H58.3355C58.1955 22.74 58.0121 22.86 57.7855 22.96C57.5655 23.0533 57.3155 23.1 57.0355 23.1ZM60.827 19.5C60.827 19.16 60.7804 18.91 60.687 18.75C60.5937 18.5833 60.407 18.5 60.127 18.5H59.927V18.3H60.827C61.0737 18.3 61.2604 18.3333 61.387 18.4C61.5204 18.4667 61.617 18.5667 61.677 18.7H61.727C61.867 18.56 62.047 18.4433 62.267 18.35C62.4937 18.25 62.747 18.2 63.027 18.2C63.307 18.2 63.547 18.2533 63.747 18.36C63.947 18.46 64.107 18.64 64.227 18.9C64.4004 18.68 64.6204 18.51 64.887 18.39C65.1604 18.2633 65.4404 18.2 65.727 18.2C66.1537 18.2 66.4937 18.3333 66.747 18.6C67.0004 18.8667 67.127 19.3333 67.127 20V23H66.227V20C66.227 19.52 66.1604 19.1767 66.027 18.97C65.8937 18.7567 65.6937 18.65 65.427 18.65C65.2404 18.65 65.0437 18.72 64.837 18.86C64.6304 18.9933 64.477 19.14 64.377 19.3C64.4104 19.4 64.427 19.6333 64.427 20V23H63.527V20C63.527 19.52 63.4604 19.1767 63.327 18.97C63.1937 18.7567 62.9937 18.65 62.727 18.65C62.3737 18.65 62.0404 18.8267 61.727 19.18V23H60.827V19.5Z" fill="#FBFBFB"/>
<path d="M20.378 88.98C20.378 88.538 20.3173 88.213 20.196 88.005C20.0747 87.7883 19.832 87.68 19.468 87.68H19.208V87.42H22.588C23.5327 87.42 24.3517 87.576 25.045 87.888C25.747 88.2 26.098 88.8023 26.098 89.695C26.098 90.1023 25.9593 90.4707 25.682 90.8C25.4047 91.1293 24.98 91.3893 24.408 91.58C25.2053 91.71 25.76 91.9483 26.072 92.295C26.3927 92.633 26.553 93.088 26.553 93.66C26.553 94.5353 26.2063 95.1463 25.513 95.493C24.8283 95.831 23.9833 96 22.978 96H20.378V88.98ZM22.783 91.385C23.1383 91.385 23.472 91.32 23.784 91.19C24.1047 91.0513 24.3647 90.852 24.564 90.592C24.7633 90.3233 24.863 90.0027 24.863 89.63C24.863 89.24 24.746 88.915 24.512 88.655C24.278 88.3863 23.979 88.1913 23.615 88.07C23.2597 87.94 22.8957 87.875 22.523 87.875C22.2197 87.875 21.8947 87.9183 21.548 88.005V91.385H22.783ZM22.783 95.545C23.5717 95.545 24.1783 95.389 24.603 95.077C25.0363 94.765 25.253 94.3143 25.253 93.725C25.253 93.1357 25.0407 92.685 24.616 92.373C24.2 92.061 23.589 91.905 22.783 91.905H21.548V95.363C21.964 95.4843 22.3757 95.545 22.783 95.545ZM28.7119 89.11C28.5126 89.11 28.3392 89.0277 28.1919 88.863C28.0532 88.6983 27.9839 88.5033 27.9839 88.278C27.9839 88.096 28.0359 87.953 28.1399 87.849C28.2526 87.745 28.3999 87.693 28.5819 87.693C28.7812 87.693 28.9502 87.7753 29.0889 87.94C29.2362 88.1047 29.3099 88.2997 29.3099 88.525C29.3099 88.707 29.2536 88.85 29.1409 88.954C29.0369 89.058 28.8939 89.11 28.7119 89.11ZM28.2179 91.45C28.2179 91.008 28.1572 90.683 28.0359 90.475C27.9146 90.2583 27.6719 90.15 27.3079 90.15H27.0479V89.89H28.2179C28.5386 89.89 28.7769 89.9333 28.9329 90.02C29.0976 90.098 29.2146 90.2453 29.2839 90.462C29.3532 90.6787 29.3879 91.008 29.3879 91.45V96H28.2179V91.45ZM31.3757 88.98C31.3757 88.538 31.315 88.213 31.1937 88.005C31.0724 87.7883 30.8297 87.68 30.4657 87.68H30.2057V87.42H31.3757C31.6964 87.42 31.9347 87.4633 32.0907 87.55C32.2554 87.628 32.3724 87.7753 32.4417 87.992C32.511 88.2087 32.5457 88.538 32.5457 88.98V96H31.3757V88.98ZM34.5241 88.98C34.5241 88.538 34.4635 88.213 34.3421 88.005C34.2208 87.7883 33.9781 87.68 33.6141 87.68H33.3541V87.42H34.5241C34.8448 87.42 35.0831 87.4633 35.2391 87.55C35.4038 87.628 35.5208 87.7753 35.5901 87.992C35.6595 88.2087 35.6941 88.538 35.6941 88.98V96H34.5241V88.98ZM38.3096 89.11C38.1102 89.11 37.9369 89.0277 37.7896 88.863C37.6509 88.6983 37.5816 88.5033 37.5816 88.278C37.5816 88.096 37.6336 87.953 37.7376 87.849C37.8502 87.745 37.9976 87.693 38.1796 87.693C38.3789 87.693 38.5479 87.7753 38.6866 87.94C38.8339 88.1047 38.9076 88.2997 38.9076 88.525C38.9076 88.707 38.8512 88.85 38.7386 88.954C38.6346 89.058 38.4916 89.11 38.3096 89.11ZM37.8156 91.45C37.8156 91.008 37.7549 90.683 37.6336 90.475C37.5122 90.2583 37.2696 90.15 36.9056 90.15H36.6456V89.89H37.8156C38.1362 89.89 38.3746 89.9333 38.5306 90.02C38.6952 90.098 38.8122 90.2453 38.8816 90.462C38.9509 90.6787 38.9856 91.008 38.9856 91.45V96H37.8156V91.45ZM43.1988 96.13C42.6095 96.13 42.1111 95.9913 41.7038 95.714C41.2965 95.428 40.9888 95.0467 40.7808 94.57C40.5728 94.0847 40.4688 93.543 40.4688 92.945C40.4688 92.3557 40.5728 91.8183 40.7808 91.333C40.9888 90.8477 41.2878 90.4663 41.6778 90.189C42.0765 89.903 42.5401 89.76 43.0688 89.76C43.9441 89.76 44.5941 90.007 45.0188 90.501C45.4521 90.9863 45.6688 91.6927 45.6688 92.62L45.6428 93.14H41.7038C41.7038 93.868 41.8598 94.4617 42.1718 94.921C42.4838 95.3803 42.9128 95.61 43.4588 95.61C43.8661 95.61 44.2085 95.5233 44.4858 95.35C44.7718 95.1767 45.0361 94.9167 45.2788 94.57L45.5388 94.765C45.2528 95.2417 44.9191 95.5883 44.5378 95.805C44.1565 96.0217 43.7101 96.13 43.1988 96.13ZM44.4338 92.62C44.4338 91.8573 44.3211 91.2767 44.0958 90.878C43.8705 90.4793 43.5281 90.28 43.0688 90.28C42.8088 90.28 42.5748 90.384 42.3668 90.592C42.1588 90.7913 41.9941 91.0687 41.8728 91.424C41.7601 91.7793 41.7038 92.178 41.7038 92.62H44.4338ZM50.8594 88.98C50.8594 88.538 50.7988 88.213 50.6774 88.005C50.5561 87.7883 50.3134 87.68 49.9494 87.68H49.6894V87.42H55.2274C55.9641 87.42 56.3324 87.7667 56.3324 88.46V89.435H56.0724C56.0724 88.4383 55.5308 87.94 54.4474 87.94H52.0294V91.32H55.5394V91.84H52.0294V95.48H54.3044C54.9024 95.48 55.3704 95.3717 55.7084 95.155C56.0464 94.9383 56.3151 94.57 56.5144 94.05L56.7744 94.115L56.3194 95.35C56.1634 95.7833 55.8384 96 55.3444 96H50.8594V88.98ZM58.7744 89.11C58.5751 89.11 58.4017 89.0277 58.2544 88.863C58.1157 88.6983 58.0464 88.5033 58.0464 88.278C58.0464 88.096 58.0984 87.953 58.2024 87.849C58.3151 87.745 58.4624 87.693 58.6444 87.693C58.8437 87.693 59.0127 87.7753 59.1514 87.94C59.2987 88.1047 59.3724 88.2997 59.3724 88.525C59.3724 88.707 59.3161 88.85 59.2034 88.954C59.0994 89.058 58.9564 89.11 58.7744 89.11ZM58.2804 91.45C58.2804 91.008 58.2197 90.683 58.0984 90.475C57.9771 90.2583 57.7344 90.15 57.3704 90.15H57.1104V89.89H58.2804C58.6011 89.89 58.8394 89.9333 58.9954 90.02C59.1601 90.098 59.2771 90.2453 59.3464 90.462C59.4157 90.6787 59.4504 91.008 59.4504 91.45V96H58.2804V91.45ZM61.4382 88.98C61.4382 88.538 61.3775 88.213 61.2562 88.005C61.1349 87.7883 60.8922 87.68 60.5282 87.68H60.2682V87.42H61.4382C61.7589 87.42 61.9972 87.4633 62.1532 87.55C62.3179 87.628 62.4349 87.7753 62.5042 87.992C62.5735 88.2087 62.6082 88.538 62.6082 88.98V96H61.4382V88.98ZM65.2236 89.11C65.0243 89.11 64.851 89.0277 64.7036 88.863C64.565 88.6983 64.4956 88.5033 64.4956 88.278C64.4956 88.096 64.5476 87.953 64.6516 87.849C64.7643 87.745 64.9116 87.693 65.0936 87.693C65.293 87.693 65.462 87.7753 65.6006 87.94C65.748 88.1047 65.8216 88.2997 65.8216 88.525C65.8216 88.707 65.7653 88.85 65.6526 88.954C65.5486 89.058 65.4056 89.11 65.2236 89.11ZM64.7296 91.45C64.7296 91.008 64.669 90.683 64.5476 90.475C64.4263 90.2583 64.1836 90.15 63.8196 90.15H63.5596V89.89H64.7296C65.0503 89.89 65.2886 89.9333 65.4446 90.02C65.6093 90.098 65.7263 90.2453 65.7956 90.462C65.865 90.6787 65.8996 91.008 65.8996 91.45V96H64.7296V91.45ZM69.7749 96.13C68.7782 96.13 68.1065 95.9567 67.7599 95.61C67.6125 95.4627 67.5215 95.298 67.4869 95.116C67.4522 94.9253 67.4349 94.635 67.4349 94.245H67.6949C67.7729 94.6783 67.9592 95.0163 68.2539 95.259C68.5572 95.493 68.9775 95.61 69.5149 95.61C69.9915 95.61 70.3469 95.5277 70.5809 95.363C70.8235 95.1983 70.9449 94.9773 70.9449 94.7C70.9449 94.4487 70.8495 94.232 70.6589 94.05C70.4769 93.868 70.1822 93.6947 69.7749 93.53L68.9949 93.205C68.4749 92.997 68.0849 92.7543 67.8249 92.477C67.5649 92.1997 67.4349 91.8573 67.4349 91.45C67.4349 90.9213 67.6342 90.5097 68.0329 90.215C68.4315 89.9117 68.9472 89.76 69.5799 89.76C70.5332 89.76 71.1832 89.9333 71.5299 90.28C71.6772 90.4273 71.7682 90.592 71.8029 90.774C71.8375 90.956 71.8549 91.2463 71.8549 91.645H71.5949C71.5255 91.2117 71.3435 90.878 71.0489 90.644C70.7542 90.4013 70.3512 90.28 69.8399 90.28C69.4325 90.28 69.1119 90.3667 68.8779 90.54C68.6525 90.7047 68.5399 90.9213 68.5399 91.19C68.5399 91.6407 68.8865 92.009 69.5799 92.295L70.3599 92.62C70.9492 92.8627 71.3782 93.1227 71.6469 93.4C71.9155 93.6687 72.0499 94.0153 72.0499 94.44C72.0499 94.9687 71.8375 95.3847 71.4129 95.688C70.9882 95.9827 70.4422 96.13 69.7749 96.13ZM73.5356 88.98C73.5356 88.538 73.4749 88.213 73.3536 88.005C73.2323 87.7883 72.9896 87.68 72.6256 87.68H72.3656V87.42H73.5356C73.8563 87.42 74.0946 87.4633 74.2506 87.55C74.4153 87.628 74.5323 87.7753 74.6016 87.992C74.6709 88.2087 74.7056 88.538 74.7056 88.98V90.41C74.8876 90.228 75.1216 90.0763 75.4076 89.955C75.7023 89.825 76.0316 89.76 76.3956 89.76C77.0456 89.76 77.5743 89.9333 77.9816 90.28C78.3976 90.6267 78.6056 91.2333 78.6056 92.1V96H77.4356V92.1C77.4356 91.4933 77.2969 91.0513 77.0196 90.774C76.7509 90.488 76.4129 90.345 76.0056 90.345C75.5463 90.345 75.1129 90.5747 74.7056 91.034V96H73.5356V88.98Z" fill="#FBFBFB"/>
<path d="M21.014 36.74C21.014 36.094 20.9253 35.619 20.748 35.315C20.5707 34.9983 20.216 34.84 19.684 34.84H19.304V34.46H21.014C21.4827 34.46 21.831 34.5233 22.059 34.65C22.2997 34.764 22.4707 34.9793 22.572 35.296C22.6733 35.6127 22.724 36.094 22.724 36.74V40.16H28.424V34.46H30.134V44.72C30.134 45.366 30.2227 45.8473 30.4 46.164C30.5773 46.468 30.932 46.62 31.464 46.62H31.844V47H30.134C29.6653 47 29.3107 46.943 29.07 46.829C28.842 46.7023 28.6773 46.4807 28.576 46.164C28.4747 45.8473 28.424 45.366 28.424 44.72V40.92H22.724V47H21.014V36.74ZM35.4101 47.19C35.0047 47.19 34.5931 47.1077 34.1751 46.943C33.7571 46.7657 33.3961 46.4807 33.0921 46.088C32.8007 45.6953 32.6551 45.176 32.6551 44.53C32.6551 43.5673 33.0984 42.8833 33.9851 42.478C34.8844 42.0727 36.0561 41.87 37.5001 41.87H38.0701C38.0701 40.6287 37.8991 39.78 37.5571 39.324C37.2151 38.868 36.7211 38.64 36.0751 38.64C35.5051 38.64 35.0491 38.7603 34.7071 39.001C34.3651 39.2417 34.1244 39.6597 33.9851 40.255H33.1301C33.1301 39.8243 33.1554 39.4887 33.2061 39.248C33.2567 38.9947 33.3897 38.7603 33.6051 38.545C33.8331 38.317 34.2067 38.1523 34.7261 38.051C35.2581 37.937 35.8344 37.88 36.4551 37.88C37.4811 37.88 38.2917 38.1587 38.8871 38.716C39.4824 39.2607 39.7801 40.312 39.7801 41.87V47H38.8301L38.1651 46.145H38.0701C37.8421 46.4363 37.5064 46.6833 37.0631 46.886C36.6197 47.0887 36.0687 47.19 35.4101 47.19ZM36.2651 46.335C36.6831 46.335 37.0314 46.2337 37.3101 46.031C37.5887 45.8283 37.8421 45.5497 38.0701 45.195V42.63H37.5001C36.5627 42.63 35.8217 42.8073 35.2771 43.162C34.7324 43.504 34.4601 43.96 34.4601 44.53C34.4601 45.1127 34.6311 45.5623 34.9731 45.879C35.3277 46.183 35.7584 46.335 36.2651 46.335ZM42.7145 40.35C42.7145 39.704 42.6259 39.229 42.4485 38.925C42.2712 38.6083 41.9165 38.45 41.3845 38.45H41.0045V38.07H42.7145C43.1959 38.07 43.5569 38.1397 43.7975 38.279C44.0509 38.4057 44.2282 38.621 44.3295 38.925H44.4245C44.6525 38.6337 44.9755 38.3867 45.3935 38.184C45.8115 37.9813 46.3435 37.88 46.9895 37.88C48.0789 37.88 48.9212 38.3233 49.5165 39.21C50.1119 40.084 50.4095 41.1923 50.4095 42.535C50.4095 43.8903 50.0992 45.005 49.4785 45.879C48.8705 46.753 47.9775 47.19 46.7995 47.19C46.3182 47.19 45.8939 47.1393 45.5265 47.038C45.1592 46.9367 44.7919 46.7973 44.4245 46.62V50.61H42.7145V40.35ZM46.2295 46.43C47.0402 46.43 47.6355 46.0753 48.0155 45.366C48.4082 44.6567 48.6045 43.713 48.6045 42.535C48.6045 41.3697 48.4209 40.4323 48.0535 39.723C47.6862 39.001 47.1415 38.64 46.4195 38.64C45.5709 38.64 44.9059 39.02 44.4245 39.78V45.86C44.8045 46.0373 45.1339 46.1767 45.4125 46.278C45.6912 46.3793 45.9635 46.43 46.2295 46.43ZM52.9382 40.35C52.9382 39.704 52.8495 39.229 52.6722 38.925C52.4948 38.6083 52.1402 38.45 51.6082 38.45H51.2282V38.07H52.9382C53.4195 38.07 53.7805 38.1397 54.0212 38.279C54.2745 38.4057 54.4518 38.621 54.5532 38.925H54.6482C54.8762 38.6337 55.1992 38.3867 55.6172 38.184C56.0352 37.9813 56.5672 37.88 57.2132 37.88C58.3025 37.88 59.1448 38.3233 59.7402 39.21C60.3355 40.084 60.6332 41.1923 60.6332 42.535C60.6332 43.8903 60.3228 45.005 59.7022 45.879C59.0942 46.753 58.2012 47.19 57.0232 47.19C56.5418 47.19 56.1175 47.1393 55.7502 47.038C55.3828 46.9367 55.0155 46.7973 54.6482 46.62V50.61H52.9382V40.35ZM56.4532 46.43C57.2638 46.43 57.8592 46.0753 58.2392 45.366C58.6318 44.6567 58.8282 43.713 58.8282 42.535C58.8282 41.3697 58.6445 40.4323 58.2772 39.723C57.9098 39.001 57.3652 38.64 56.6432 38.64C55.7945 38.64 55.1295 39.02 54.6482 39.78V45.86C55.0282 46.0373 55.3575 46.1767 55.6362 46.278C55.9148 46.3793 56.1872 46.43 56.4532 46.43ZM63.8838 36.93C63.5925 36.93 63.3391 36.8097 63.1238 36.569C62.9211 36.3283 62.8198 36.0433 62.8198 35.714C62.8198 35.448 62.8958 35.239 63.0478 35.087C63.2125 34.935 63.4278 34.859 63.6938 34.859C63.9851 34.859 64.2321 34.9793 64.4348 35.22C64.6501 35.4607 64.7578 35.7457 64.7578 36.075C64.7578 36.341 64.6755 36.55 64.5108 36.702C64.3588 36.854 64.1498 36.93 63.8838 36.93ZM63.1618 40.35C63.1618 39.704 63.0731 39.229 62.8958 38.925C62.7185 38.6083 62.3638 38.45 61.8318 38.45H61.4518V38.07H63.1618C63.6305 38.07 63.9788 38.1333 64.2068 38.26C64.4475 38.374 64.6185 38.5893 64.7198 38.906C64.8211 39.2227 64.8718 39.704 64.8718 40.35V47H63.1618V40.35ZM71.0296 47.19C70.1682 47.19 69.4399 46.9873 68.8446 46.582C68.2492 46.164 67.7996 45.6067 67.4956 44.91C67.1916 44.2007 67.0396 43.409 67.0396 42.535C67.0396 41.6737 67.1916 40.8883 67.4956 40.179C67.7996 39.4697 68.2366 38.9123 68.8066 38.507C69.3892 38.089 70.0669 37.88 70.8396 37.88C72.1189 37.88 73.0689 38.241 73.6896 38.963C74.3229 39.6723 74.6396 40.7047 74.6396 42.06L74.6016 42.82H68.8446C68.8446 43.884 69.0726 44.7517 69.5286 45.423C69.9846 46.0943 70.6116 46.43 71.4096 46.43C72.0049 46.43 72.5052 46.3033 72.9106 46.05C73.3286 45.7967 73.7149 45.4167 74.0696 44.91L74.4496 45.195C74.0316 45.8917 73.5439 46.3983 72.9866 46.715C72.4292 47.0317 71.7769 47.19 71.0296 47.19ZM72.8346 42.06C72.8346 40.9453 72.6699 40.0967 72.3406 39.514C72.0112 38.9313 71.5109 38.64 70.8396 38.64C70.4596 38.64 70.1176 38.792 69.8136 39.096C69.5096 39.3873 69.2689 39.7927 69.0916 40.312C68.9269 40.8313 68.8446 41.414 68.8446 42.06H72.8346ZM76.9819 40.35C76.9819 39.704 76.8932 39.229 76.7159 38.925C76.5386 38.6083 76.1839 38.45 75.6519 38.45H75.4619V38.07H76.9819C77.4632 38.07 77.8242 38.1397 78.0649 38.279C78.3182 38.4057 78.4956 38.621 78.5969 38.925H78.6919C78.9199 38.6337 79.2239 38.3867 79.6039 38.184C79.9966 37.9813 80.4526 37.88 80.9719 37.88C81.4786 37.88 81.8586 37.975 82.1119 38.165C82.3272 38.3297 82.5489 38.6147 82.7769 39.02L82.0169 39.59C81.8776 39.4 81.6749 39.2607 81.4089 39.172C81.1429 39.0707 80.8389 39.02 80.4969 39.02C80.1169 39.02 79.7686 39.1087 79.4519 39.286C79.1352 39.4507 78.8819 39.6787 78.6919 39.97V47H76.9819V40.35ZM90.9177 35.22C89.3343 35.22 88.5427 35.9483 88.5427 37.405H88.1627V35.98C88.1627 34.9667 88.701 34.46 89.7777 34.46H98.6127V35.22H94.3377V47H92.6277V35.22H90.9177ZM100.821 36.74C100.821 36.094 100.732 35.619 100.555 35.315C100.378 34.9983 100.023 34.84 99.4911 34.84H99.1111V34.46H100.821C101.29 34.46 101.638 34.5233 101.866 34.65C102.107 34.764 102.278 34.9793 102.379 35.296C102.48 35.6127 102.531 36.094 102.531 36.74V38.83C102.797 38.564 103.139 38.3423 103.557 38.165C103.988 37.975 104.469 37.88 105.001 37.88C105.951 37.88 106.724 38.1333 107.319 38.64C107.927 39.1467 108.231 40.0333 108.231 41.3V47H106.521V41.3C106.521 40.4133 106.318 39.7673 105.913 39.362C105.52 38.944 105.026 38.735 104.431 38.735C103.76 38.735 103.126 39.0707 102.531 39.742V47H100.821V36.74ZM113.006 47.19C112.6 47.19 112.189 47.1077 111.771 46.943C111.353 46.7657 110.992 46.4807 110.688 46.088C110.396 45.6953 110.251 45.176 110.251 44.53C110.251 43.5673 110.694 42.8833 111.581 42.478C112.48 42.0727 113.652 41.87 115.096 41.87H115.666C115.666 40.6287 115.495 39.78 115.153 39.324C114.811 38.868 114.317 38.64 113.671 38.64C113.101 38.64 112.645 38.7603 112.303 39.001C111.961 39.2417 111.72 39.6597 111.581 40.255H110.726C110.726 39.8243 110.751 39.4887 110.802 39.248C110.852 38.9947 110.985 38.7603 111.201 38.545C111.429 38.317 111.802 38.1523 112.322 38.051C112.854 37.937 113.43 37.88 114.051 37.88C115.077 37.88 115.887 38.1587 116.483 38.716C117.078 39.2607 117.376 40.312 117.376 41.87V47H116.426L115.761 46.145H115.666C115.438 46.4363 115.102 46.6833 114.659 46.886C114.215 47.0887 113.664 47.19 113.006 47.19ZM113.861 46.335C114.279 46.335 114.627 46.2337 114.906 46.031C115.184 45.8283 115.438 45.5497 115.666 45.195V42.63H115.096C114.158 42.63 113.417 42.8073 112.873 43.162C112.328 43.504 112.056 43.96 112.056 44.53C112.056 45.1127 112.227 45.5623 112.569 45.879C112.923 46.183 113.354 46.335 113.861 46.335ZM120.31 40.35C120.31 39.704 120.222 39.229 120.044 38.925C119.867 38.6083 119.512 38.45 118.98 38.45H118.6V38.07H120.31C120.779 38.07 121.134 38.1333 121.374 38.26C121.628 38.3867 121.811 38.5767 121.925 38.83H122.02C122.286 38.564 122.628 38.3423 123.046 38.165C123.477 37.975 123.958 37.88 124.49 37.88C125.44 37.88 126.213 38.1333 126.808 38.64C127.416 39.1467 127.72 40.0333 127.72 41.3V47H126.01V41.3C126.01 40.4133 125.808 39.7673 125.402 39.362C125.01 38.944 124.516 38.735 123.92 38.735C123.249 38.735 122.616 39.0707 122.02 39.742V47H120.31V40.35ZM21.014 55.74C21.014 55.094 20.9253 54.619 20.748 54.315C20.5707 53.9983 20.216 53.84 19.684 53.84H19.304V53.46H27.398C28.4747 53.46 29.013 53.9667 29.013 54.98V56.405H28.633C28.633 54.9483 27.8413 54.22 26.258 54.22H22.724V59.16H27.854V59.92H22.724V65.24H26.049C26.923 65.24 27.607 65.0817 28.101 64.765C28.595 64.4483 28.9877 63.91 29.279 63.15L29.659 63.245L28.994 65.05C28.766 65.6833 28.291 66 27.569 66H21.014V55.74ZM32.088 59.255C31.784 58.5457 31.4927 58.0517 31.214 57.773C30.9354 57.4817 30.568 57.3233 30.112 57.298V56.918C30.1754 56.918 30.264 56.9117 30.378 56.899C30.5047 56.8863 30.6314 56.88 30.758 56.88C31.4294 56.88 32.0374 57.051 32.582 57.393C33.1267 57.7223 33.5954 58.343 33.988 59.255L35.698 63.34L38.358 57.07H39.308L35.413 66.19H35.033L32.088 59.255ZM44.3479 66.19C43.4866 66.19 42.7583 65.9873 42.1629 65.582C41.5676 65.164 41.1179 64.6067 40.8139 63.91C40.5099 63.2007 40.3579 62.409 40.3579 61.535C40.3579 60.6737 40.5099 59.8883 40.8139 59.179C41.1179 58.4697 41.5549 57.9123 42.1249 57.507C42.7076 57.089 43.3853 56.88 44.1579 56.88C45.4373 56.88 46.3873 57.241 47.0079 57.963C47.6413 58.6723 47.9579 59.7047 47.9579 61.06L47.9199 61.82H42.1629C42.1629 62.884 42.3909 63.7517 42.8469 64.423C43.3029 65.0943 43.9299 65.43 44.7279 65.43C45.3233 65.43 45.8236 65.3033 46.2289 65.05C46.6469 64.7967 47.0333 64.4167 47.3879 63.91L47.7679 64.195C47.3499 64.8917 46.8623 65.3983 46.3049 65.715C45.7476 66.0317 45.0953 66.19 44.3479 66.19ZM46.1529 61.06C46.1529 59.9453 45.9883 59.0967 45.6589 58.514C45.3296 57.9313 44.8293 57.64 44.1579 57.64C43.7779 57.64 43.4359 57.792 43.1319 58.096C42.8279 58.3873 42.5873 58.7927 42.4099 59.312C42.2453 59.8313 42.1629 60.414 42.1629 61.06H46.1529ZM50.3003 59.35C50.3003 58.704 50.2116 58.229 50.0343 57.925C49.8569 57.6083 49.5023 57.45 48.9703 57.45H48.7803V57.07H50.3003C50.7816 57.07 51.1426 57.1397 51.3833 57.279C51.6366 57.4057 51.8139 57.621 51.9153 57.925H52.0103C52.2383 57.6337 52.5423 57.3867 52.9223 57.184C53.3149 56.9813 53.7709 56.88 54.2903 56.88C54.7969 56.88 55.1769 56.975 55.4303 57.165C55.6456 57.3297 55.8673 57.6147 56.0953 58.02L55.3353 58.59C55.1959 58.4 54.9933 58.2607 54.7273 58.172C54.4613 58.0707 54.1573 58.02 53.8153 58.02C53.4353 58.02 53.0869 58.1087 52.7703 58.286C52.4536 58.4507 52.2003 58.6787 52.0103 58.97V66H50.3003V59.35Z" fill="#FBFBFB"/>
</g>
<defs>
<radialGradient id="paint0_radial_30_175" cx="0" cy="0" r="1" gradientUnits="userSpaceOnUse" gradientTransform="translate(307.981 40.641) rotate(44.6554) scale(82.2368 83.1472)">
<stop stop-color="white"/>
<stop offset="1" stop-color="#1E1E1E" stop-opacity="0"/>
<stop offset="1" stop-color="#0E0E35" stop-opacity="0"/>
<stop offset="1" stop-color="white" stop-opacity="0"/>
</radialGradient>
<clipPath id="clip0_30_175">
<rect width="334" height="118" rx="30" fill="white"/>
</clipPath>
</defs>
</svg>
